# xmcd CD database file
#
# Track frame offsets:
#	182
#	26285
#	57160
#	77882
#	96475
#	119247
#	138125
#	164480
#	183240
#	205760
#	232752
#	258750
#
# Disc length: 3915 seconds
#
# Revision: 6
# Processed by: cddbd v1.5.2PL0 Copyright (c) Steve Scherf et al.
# Submitted via: CDex 1.50
#
DISCID=9a0f490c
DTITLE=Verschieden - Jazz Saxophone
DYEAR=1995
DGENRE=Jazz
TTITLE0=Five Four Train - Sonny Fortune
TTITLE1=Sometimes I Feel Like A Motherless Child - Chico Freeman
TTITLE2=Celebration - Jimmy Guiffre
TTITLE3=Be With You In One Hour Tonight - Coleman Hawkins
TTITLE4=Passion Flower - Johnny Hodges
TTITLE5=Thanks For The Memory - Lee Konitz
TTITLE6=Out Of Nowhere - David Liebman
TTITLE7=Spanish Eyes - Flip Phillips
TTITLE8=Nuestro Bolero - Paquito D'Rivera
TTITLE9=Let Me Tell You Why - Bud Shank
TTITLE10=Fred - Zoot Sims
TTITLE11=Ballad - Phil Woods
EXTD=Emporio\nEMPRCD 609 YEAR: 1995
EXTT0=
EXTT1=
EXTT2=
EXTT3=
EXTT4=
EXTT5=
EXTT6=
EXTT7=
EXTT8=
EXTT9=
EXTT10=
EXTT11=
PLAYORDER=
